<?xml version="1.0" encoding="UTF-8"?>
<svg width="680" height="500" viewBox="0 0 680 500" xmlns="http://www.w3.org/2000/svg" role="img"><title>Five graph products of P₃</title><desc>Composite figure comparing Cartesian, tensor, strong, lexicographic, and modular products of the path graph P₃ with itself</desc><rect width="680" height="500" fill="#ffffff"/><text x="115" y="63" text-anchor="middle" font-family="sans-serif" font-size="13" font-weight="500" fill="#111827">(a) Cartesian G □ H</text><text x="115" y="78" text-anchor="middle" font-family="sans-serif" font-size="11" fill="#9ca3af">12 edges</text><line x1="63" y1="179" x2="115" y2="179" stroke="#378ADD" stroke-width="1.2" opacity="0.65"/><line x1="63" y1="179" x2="63" y2="135" stroke="#1D9E75" stroke-width="1.2" opacity="0.65"/><line x1="63" y1="135" x2="115" y2="135" stroke="#378ADD" stroke-width="1.2" opacity="0.65"/><line x1="63" y1="135" x2="63" y2="91" stroke="#1D9E75" stroke-width="1.2" opacity="0.65"/><line x1="63" y1="91" x2="115" y2="91" stroke="#378ADD" stroke-width="1.2" opacity="0.65"/><line x1="115" y1="179" x2="167" y2="179" stroke="#378ADD" stroke-width="1.2" opacity="0.65"/><line x1="115" y1="179" x2="115" y2="135" stroke="#1D9E75" stroke-width="1.2" opacity="0.65"/><line x1="115" y1="135" x2="167" y2="135" stroke="#378ADD" stroke-width="1.2" opacity="0.65"/><line x1="115" y1="135" x2="115" y2="91" stroke="#1D9E75" stroke-width="1.2" opacity="0.65"/><line x1="115" y1="91" x2="167" y2="91" stroke="#378ADD" stroke-width="1.2" opacity="0.65"/><line x1="167" y1="179" x2="167" y2="135" stroke="#1D9E75" stroke-width="1.2" opacity="0.65"/><line x1="167" y1="135" x2="167" y2="91" stroke="#1D9E75" stroke-width="1.2" opacity="0.65"/><circle cx="63" cy="179" r="7" fill="#ffffff" stroke="#374151" stroke-width="0.8"/><circle cx="63" cy="135" r="7" fill="#ffffff" stroke="#374151" stroke-width="0.8"/><circle cx="63" cy="91" r="7" fill="#ffffff" stroke="#374151" stroke-width="0.8"/><circle cx="115" cy="179" r="7" fill="#ffffff" stroke="#374151" stroke-width="0.8"/><circle cx="115" cy="135" r="7" fill="#ffffff" stroke="#374151" stroke-width="0.8"/><circle cx="115" cy="91" r="7" fill="#ffffff" stroke="#374151" stroke-width="0.8"/><circle cx="167" cy="179" r="7" fill="#ffffff" stroke="#374151" stroke-width="0.8"/><circle cx="167" cy="135" r="7" fill="#ffffff" stroke="#374151" stroke-width="0.8"/><circle cx="167" cy="91" r="7" fill="#ffffff" stroke="#374151" stroke-width="0.8"/><text x="63" y="197" text-anchor="middle" font-family="monospace" font-size="10" fill="#9ca3af">0</text><text x="115" y="197" text-anchor="middle" font-family="monospace" font-size="10" fill="#9ca3af">1</text><text x="167" y="197" text-anchor="middle" font-family="monospace" font-size="10" fill="#9ca3af">2</text><text x="49" y="182" text-anchor="middle" font-family="monospace" font-size="10" fill="#9ca3af">0</text><text x="49" y="138" text-anchor="middle" font-family="monospace" font-size="10" fill="#9ca3af">1</text><text x="49" y="94" text-anchor="middle" font-family="monospace" font-size="10" fill="#9ca3af">2</text><text x="115" y="203" text-anchor="middle" font-family="sans-serif" font-size="10" fill="#9ca3af">G component →</text><text x="43" y="135" text-anchor="middle" font-family="sans-serif" font-size="10" fill="#9ca3af" transform="rotate(-90,43,135)">H component →</text><text x="340" y="63" text-anchor="middle" font-family="sans-serif" font-size="13" font-weight="500" fill="#111827">(b) Tensor G × H</text><text x="340" y="78" text-anchor="middle" font-family="sans-serif" font-size="11" fill="#9ca3af">8 edges</text><line x1="288" y1="179" x2="340" y2="135" stroke="#D85A30" stroke-width="1.2" opacity="0.65"/><line x1="288" y1="135" x2="340" y2="179" stroke="#D85A30" stroke-width="1.2" opacity="0.65"/><line x1="288" y1="135" x2="340" y2="91" stroke="#D85A30" stroke-width="1.2" opacity="0.65"/><line x1="288" y1="91" x2="340" y2="135" stroke="#D85A30" stroke-width="1.2" opacity="0.65"/><line x1="340" y1="179" x2="392" y2="135" stroke="#D85A30" stroke-width="1.2" opacity="0.65"/><line x1="340" y1="135" x2="392" y2="179" stroke="#D85A30" stroke-width="1.2" opacity="0.65"/><line x1="340" y1="135" x2="392" y2="91" stroke="#D85A30" stroke-width="1.2" opacity="0.65"/><line x1="340" y1="91" x2="392" y2="135" stroke="#D85A30" stroke-width="1.2" opacity="0.65"/><circle cx="288" cy="179" r="7" fill="#ffffff" stroke="#374151" stroke-width="0.8"/><circle cx="288" cy="135" r="7" fill="#ffffff" stroke="#374151" stroke-width="0.8"/><circle cx="288" cy="91" r="7" fill="#ffffff" stroke="#374151" stroke-width="0.8"/><circle cx="340" cy="179" r="7" fill="#ffffff" stroke="#374151" stroke-width="0.8"/><circle cx="340" cy="135" r="7" fill="#ffffff" stroke="#374151" stroke-width="0.8"/><circle cx="340" cy="91" r="7" fill="#ffffff" stroke="#374151" stroke-width="0.8"/><circle cx="392" cy="179" r="7" fill="#ffffff" stroke="#374151" stroke-width="0.8"/><circle cx="392" cy="135" r="7" fill="#ffffff" stroke="#374151" stroke-width="0.8"/><circle cx="392" cy="91" r="7" fill="#ffffff" stroke="#374151" stroke-width="0.8"/><text x="565" y="63" text-anchor="middle" font-family="sans-serif" font-size="13" font-weight="500" fill="#111827">(c) Strong G ⊠ H</text><text x="565" y="78" text-anchor="middle" font-family="sans-serif" font-size="11" fill="#9ca3af">20 edges</text><line x1="513" y1="179" x2="513" y2="135" stroke="#1D9E75" stroke-width="1.2" opacity="0.65"/><line x1="513" y1="179" x2="565" y2="179" stroke="#378ADD" stroke-width="1.2" opacity="0.65"/><line x1="513" y1="179" x2="565" y2="135" stroke="#D85A30" stroke-width="1.2" opacity="0.65"/><line x1="513" y1="135" x2="513" y2="91" stroke="#1D9E75" stroke-width="1.2" opacity="0.65"/><line x1="513" y1="135" x2="565" y2="179" stroke="#D85A30" stroke-width="1.2" opacity="0.65"/><line x1="513" y1="135" x2="565" y2="135" stroke="#378ADD" stroke-width="1.2" opacity="0.65"/><line x1="513" y1="135" x2="565" y2="91" stroke="#D85A30" stroke-width="1.2" opacity="0.65"/><line x1="513" y1="91" x2="565" y2="135" stroke="#D85A30" stroke-width="1.2" opacity="0.65"/><line x1="513" y1="91" x2="565" y2="91" stroke="#378ADD" stroke-width="1.2" opacity="0.65"/><line x1="565" y1="179" x2="565" y2="135" stroke="#1D9E75" stroke-width="1.2" opacity="0.65"/><line x1="565" y1="179" x2="617" y2="179" stroke="#378ADD" stroke-width="1.2" opacity="0.65"/><line x1="565" y1="179" x2="617" y2="135" stroke="#D85A30" stroke-width="1.2" opacity="0.65"/><line x1="565" y1="135" x2="565" y2="91" stroke="#1D9E75" stroke-width="1.2" opacity="0.65"/><line x1="565" y1="135" x2="617" y2="179" stroke="#D85A30" stroke-width="1.2" opacity="0.65"/><line x1="565" y1="135" x2="617" y2="135" stroke="#378ADD" stroke-width="1.2" opacity="0.65"/><line x1="565" y1="135" x2="617" y2="91" stroke="#D85A30" stroke-width="1.2" opacity="0.65"/><line x1="565" y1="91" x2="617" y2="135" stroke="#D85A30" stroke-width="1.2" opacity="0.65"/><line x1="565" y1="91" x2="617" y2="91" stroke="#378ADD" stroke-width="1.2" opacity="0.65"/><line x1="617" y1="179" x2="617" y2="135" stroke="#1D9E75" stroke-width="1.2" opacity="0.65"/><line x1="617" y1="135" x2="617" y2="91" stroke="#1D9E75" stroke-width="1.2" opacity="0.65"/><circle cx="513" cy="179" r="7" fill="#ffffff" stroke="#374151" stroke-width="0.8"/><circle cx="513" cy="135" r="7" fill="#ffffff" stroke="#374151" stroke-width="0.8"/><circle cx="513" cy="91" r="7" fill="#ffffff" stroke="#374151" stroke-width="0.8"/><circle cx="565" cy="179" r="7" fill="#ffffff" stroke="#374151" stroke-width="0.8"/><circle cx="565" cy="135" r="7" fill="#ffffff" stroke="#374151" stroke-width="0.8"/><circle cx="565" cy="91" r="7" fill="#ffffff" stroke="#374151" stroke-width="0.8"/><circle cx="617" cy="179" r="7" fill="#ffffff" stroke="#374151" stroke-width="0.8"/><circle cx="617" cy="135" r="7" fill="#ffffff" stroke="#374151" stroke-width="0.8"/><circle cx="617" cy="91" r="7" fill="#ffffff" stroke="#374151" stroke-width="0.8"/><text x="115" y="303" text-anchor="middle" font-family="sans-serif" font-size="13" font-weight="500" fill="#111827">(d) Lexicographic G[H]</text><text x="115" y="318" text-anchor="middle" font-family="sans-serif" font-size="11" fill="#9ca3af">24 edges</text><line x1="63" y1="419" x2="63" y2="375" stroke="#1D9E75" stroke-width="1.2" opacity="0.65"/><line x1="63" y1="419" x2="115" y2="419" stroke="#BA7517" stroke-width="1.2" opacity="0.65"/><line x1="63" y1="419" x2="115" y2="375" stroke="#BA7517" stroke-width="1.2" opacity="0.65"/><path d="M63 419Q73.50332249214232 365.84287238172044 115 331" fill="none" stroke="#BA7517" stroke-width="1.2" opacity="0.65"/><line x1="63" y1="375" x2="63" y2="331" stroke="#1D9E75" stroke-width="1.2" opacity="0.65"/><line x1="63" y1="375" x2="115" y2="419" stroke="#BA7517" stroke-width="1.2" opacity="0.65"/><line x1="63" y1="375" x2="115" y2="375" stroke="#BA7517" stroke-width="1.2" opacity="0.65"/><line x1="63" y1="375" x2="115" y2="331" stroke="#BA7517" stroke-width="1.2" opacity="0.65"/><path d="M63 331Q73.50332249214232 384.15712761827956 115 419" fill="none" stroke="#BA7517" stroke-width="1.2" opacity="0.65"/><line x1="63" y1="331" x2="115" y2="375" stroke="#BA7517" stroke-width="1.2" opacity="0.65"/><line x1="63" y1="331" x2="115" y2="331" stroke="#BA7517" stroke-width="1.2" opacity="0.65"/><line x1="115" y1="419" x2="115" y2="375" stroke="#1D9E75" stroke-width="1.2" opacity="0.65"/><line x1="115" y1="419" x2="167" y2="419" stroke="#BA7517" stroke-width="1.2" opacity="0.65"/><line x1="115" y1="419" x2="167" y2="375" stroke="#BA7517" stroke-width="1.2" opacity="0.65"/><path d="M115 419Q125.50332249214232 365.84287238172044 167 331" fill="none" stroke="#BA7517" stroke-width="1.2" opacity="0.65"/><line x1="115" y1="375" x2="115" y2="331" stroke="#1D9E75" stroke-width="1.2" opacity="0.65"/><line x1="115" y1="375" x2="167" y2="419" stroke="#BA7517" stroke-width="1.2" opacity="0.65"/><line x1="115" y1="375" x2="167" y2="375" stroke="#BA7517" stroke-width="1.2" opacity="0.65"/><line x1="115" y1="375" x2="167" y2="331" stroke="#BA7517" stroke-width="1.2" opacity="0.65"/><path d="M115 331Q125.50332249214232 384.15712761827956 167 419" fill="none" stroke="#BA7517" stroke-width="1.2" opacity="0.65"/><line x1="115" y1="331" x2="167" y2="375" stroke="#BA7517" stroke-width="1.2" opacity="0.65"/><line x1="115" y1="331" x2="167" y2="331" stroke="#BA7517" stroke-width="1.2" opacity="0.65"/><line x1="167" y1="419" x2="167" y2="375" stroke="#1D9E75" stroke-width="1.2" opacity="0.65"/><line x1="167" y1="375" x2="167" y2="331" stroke="#1D9E75" stroke-width="1.2" opacity="0.65"/><circle cx="63" cy="419" r="7" fill="#ffffff" stroke="#374151" stroke-width="0.8"/><circle cx="63" cy="375" r="7" fill="#ffffff" stroke="#374151" stroke-width="0.8"/><circle cx="63" cy="331" r="7" fill="#ffffff" stroke="#374151" stroke-width="0.8"/><circle cx="115" cy="419" r="7" fill="#ffffff" stroke="#374151" stroke-width="0.8"/><circle cx="115" cy="375" r="7" fill="#ffffff" stroke="#374151" stroke-width="0.8"/><circle cx="115" cy="331" r="7" fill="#ffffff" stroke="#374151" stroke-width="0.8"/><circle cx="167" cy="419" r="7" fill="#ffffff" stroke="#374151" stroke-width="0.8"/><circle cx="167" cy="375" r="7" fill="#ffffff" stroke="#374151" stroke-width="0.8"/><circle cx="167" cy="331" r="7" fill="#ffffff" stroke="#374151" stroke-width="0.8"/><text x="340" y="303" text-anchor="middle" font-family="sans-serif" font-size="13" font-weight="500" fill="#111827">(e) Modular G ◇ H</text><text x="340" y="318" text-anchor="middle" font-family="sans-serif" font-size="11" fill="#9ca3af">10 edges</text><line x1="288" y1="419" x2="340" y2="375" stroke="#D85A30" stroke-width="1.2" opacity="0.65"/><path d="M288 419Q323.8514439633457 355.9153428657721 392 331" fill="none" stroke="#7F77DD" stroke-width="1.2" opacity="0.65"/><line x1="288" y1="375" x2="340" y2="419" stroke="#D85A30" stroke-width="1.2" opacity="0.65"/><line x1="288" y1="375" x2="340" y2="331" stroke="#D85A30" stroke-width="1.2" opacity="0.65"/><line x1="288" y1="331" x2="340" y2="375" stroke="#D85A30" stroke-width="1.2" opacity="0.65"/><path d="M288 331Q323.8514439633457 394.0846571342279 392 419" fill="none" stroke="#7F77DD" stroke-width="1.2" opacity="0.65"/><line x1="340" y1="419" x2="392" y2="375" stroke="#D85A30" stroke-width="1.2" opacity="0.65"/><line x1="340" y1="375" x2="392" y2="419" stroke="#D85A30" stroke-width="1.2" opacity="0.65"/><line x1="340" y1="375" x2="392" y2="331" stroke="#D85A30" stroke-width="1.2" opacity="0.65"/><line x1="340" y1="331" x2="392" y2="375" stroke="#D85A30" stroke-width="1.2" opacity="0.65"/><circle cx="288" cy="419" r="7" fill="#ffffff" stroke="#374151" stroke-width="0.8"/><circle cx="288" cy="375" r="7" fill="#ffffff" stroke="#374151" stroke-width="0.8"/><circle cx="288" cy="331" r="7" fill="#ffffff" stroke="#374151" stroke-width="0.8"/><circle cx="340" cy="419" r="7" fill="#ffffff" stroke="#374151" stroke-width="0.8"/><circle cx="340" cy="375" r="7" fill="#ffffff" stroke="#374151" stroke-width="0.8"/><circle cx="340" cy="331" r="7" fill="#ffffff" stroke="#374151" stroke-width="0.8"/><circle cx="392" cy="419" r="7" fill="#ffffff" stroke="#374151" stroke-width="0.8"/><circle cx="392" cy="375" r="7" fill="#ffffff" stroke="#374151" stroke-width="0.8"/><circle cx="392" cy="331" r="7" fill="#ffffff" stroke="#374151" stroke-width="0.8"/><text x="565" y="303" text-anchor="middle" font-family="sans-serif" font-size="13" font-weight="500" fill="#111827">Factor graph G = H = P₃</text><text x="565" y="318" text-anchor="middle" font-family="sans-serif" font-size="11" fill="#9ca3af">2 edges</text><line x1="513" y1="375" x2="565" y2="375" stroke="#378ADD" stroke-width="1.5" opacity="0.7"/><circle cx="513" cy="375" r="8" fill="#ffffff" stroke="#374151" stroke-width="0.8"/><text x="513" y="379" text-anchor="middle" font-family="monospace" font-size="12" fill="#111827">0</text><line x1="565" y1="375" x2="617" y2="375" stroke="#378ADD" stroke-width="1.5" opacity="0.7"/><circle cx="565" cy="375" r="8" fill="#ffffff" stroke="#374151" stroke-width="0.8"/><text x="565" y="379" text-anchor="middle" font-family="monospace" font-size="12" fill="#111827">1</text><circle cx="617" cy="375" r="8" fill="#ffffff" stroke="#374151" stroke-width="0.8"/><text x="617" y="379" text-anchor="middle" font-family="monospace" font-size="12" fill="#111827">2</text><line x1="40" y1="470" x2="56" y2="470" stroke="#378ADD" stroke-width="2"/><text x="60" y="474" font-family="sans-serif" font-size="10" fill="#6b7280">G moves, H fixed</text><line x1="170" y1="470" x2="186" y2="470" stroke="#1D9E75" stroke-width="2"/><text x="190" y="474" font-family="sans-serif" font-size="10" fill="#6b7280">H moves, G fixed</text><line x1="300" y1="470" x2="316" y2="470" stroke="#D85A30" stroke-width="2"/><text x="320" y="474" font-family="sans-serif" font-size="10" fill="#6b7280">Both move (tensor)</text><line x1="40" y1="488" x2="56" y2="488" stroke="#BA7517" stroke-width="2"/><text x="60" y="492" font-family="sans-serif" font-size="10" fill="#6b7280">Outer dominates</text><line x1="200" y1="488" x2="216" y2="488" stroke="#7F77DD" stroke-width="2"/><text x="220" y="492" font-family="sans-serif" font-size="10" fill="#6b7280">Both non-adjacent</text></svg>
